{
	"asset":{
		"generator":"Khronos glTF Blender I/O v3.6.27",
		"version":"2.0"
	},
	"scene":0,
	"scenes":[
		{
			"name":"Scene",
			"nodes":[
				0
			]
		}
	],
	"nodes":[
		{
			"mesh":0,
			"name":"Object.1",
			"rotation":[
				0,
				1,
				0,
				4.371138828673793e-08
			]
		}
	],
	"meshes":[
		{
			"name":"Object.1",
			"primitives":[
				{
					"attributes":{
						"POSITION":0,
						"NORMAL":1,
						"TEXCOORD_0":2
					},
					"indices":3
				}
			]
		}
	],
	"accessors":[
		{
			"bufferView":0,
			"componentType":5126,
			"count":876,
			"max":[
				22.5,
				96.62787628173828,
				22.500009536743164
			],
			"min":[
				-22.5,
				0,
				-22.500009536743164
			],
			"type":"VEC3"
		},
		{
			"bufferView":1,
			"componentType":5126,
			"count":876,
			"type":"VEC3"
		},
		{
			"bufferView":2,
			"componentType":5126,
			"count":876,
			"type":"VEC2"
		},
		{
			"bufferView":3,
			"componentType":5123,
			"count":1452,
			"type":"SCALAR"
		}
	],
	"bufferViews":[
		{
			"buffer":0,
			"byteLength":10512,
			"byteOffset":0,
			"target":34962
		},
		{
			"buffer":0,
			"byteLength":10512,
			"byteOffset":10512,
			"target":34962
		},
		{
			"buffer":0,
			"byteLength":7008,
			"byteOffset":21024,
			"target":34962
		},
		{
			"buffer":0,
			"byteLength":2904,
			"byteOffset":28032,
			"target":34963
		}
	],
	"buffers":[
		{
			"byteLength":30936,
			"uri":"chess.bin"
		}
	]
}
