{
	"asset":{
		"generator":"Khronos glTF Blender I/O v3.6.27",
		"version":"2.0"
	},
	"scene":0,
	"scenes":[
		{
			"name":"Scene",
			"nodes":[
				0,
				1
			]
		}
	],
	"nodes":[
		{
			"mesh":0,
			"name":"Cube",
			"rotation":[
				0,
				-0.0024596115108579397,
				0,
				0.999997079372406
			]
		},
		{
			"mesh":1,
			"name":"pCube4",
			"rotation":[
				0,
				-0.0024596115108579397,
				0,
				0.999997079372406
			]
		}
	],
	"meshes":[
		{
			"name":"Cube",
			"primitives":[
				{
					"attributes":{
						"POSITION":0,
						"NORMAL":1,
						"TEXCOORD_0":2
					},
					"indices":3
				}
			]
		},
		{
			"name":"pCube4",
			"primitives":[
				{
					"attributes":{
						"POSITION":4,
						"NORMAL":5,
						"TEXCOORD_0":6
					},
					"indices":7
				}
			]
		}
	],
	"accessors":[
		{
			"bufferView":0,
			"componentType":5126,
			"count":883,
			"max":[
				18.53546714782715,
				5.906304836273193,
				0.9771249890327454
			],
			"min":[
				-18.413249969482422,
				0.16535699367523193,
				-14.307968139648438
			],
			"type":"VEC3"
		},
		{
			"bufferView":1,
			"componentType":5126,
			"count":883,
			"type":"VEC3"
		},
		{
			"bufferView":2,
			"componentType":5126,
			"count":883,
			"type":"VEC2"
		},
		{
			"bufferView":3,
			"componentType":5123,
			"count":2022,
			"type":"SCALAR"
		},
		{
			"bufferView":4,
			"componentType":5126,
			"count":755,
			"max":[
				-0.1670989990234375,
				1.5759600400924683,
				-1.3663430213928223
			],
			"min":[
				-1.6167490482330322,
				0.12297499924898148,
				-3.601067066192627
			],
			"type":"VEC3"
		},
		{
			"bufferView":5,
			"componentType":5126,
			"count":755,
			"type":"VEC3"
		},
		{
			"bufferView":6,
			"componentType":5126,
			"count":755,
			"type":"VEC2"
		},
		{
			"bufferView":7,
			"componentType":5123,
			"count":1722,
			"type":"SCALAR"
		}
	],
	"bufferViews":[
		{
			"buffer":0,
			"byteLength":10596,
			"byteOffset":0,
			"target":34962
		},
		{
			"buffer":0,
			"byteLength":10596,
			"byteOffset":10596,
			"target":34962
		},
		{
			"buffer":0,
			"byteLength":7064,
			"byteOffset":21192,
			"target":34962
		},
		{
			"buffer":0,
			"byteLength":4044,
			"byteOffset":28256,
			"target":34963
		},
		{
			"buffer":0,
			"byteLength":9060,
			"byteOffset":32300,
			"target":34962
		},
		{
			"buffer":0,
			"byteLength":9060,
			"byteOffset":41360,
			"target":34962
		},
		{
			"buffer":0,
			"byteLength":6040,
			"byteOffset":50420,
			"target":34962
		},
		{
			"buffer":0,
			"byteLength":3444,
			"byteOffset":56460,
			"target":34963
		}
	],
	"buffers":[
		{
			"byteLength":59904,
			"uri":"creepy.bin"
		}
	]
}
