{"asset":{"generator":"3D Builder","version":"2.0"},"scene":0,"scenes":[{"nodes":[0,1,2,3,4,5,6,7]}],"nodes":[{"mesh":0,"matrix":[22.377309799194336,0,0,0,0,-8.0747514630274964E-7,-6.7735915184021,0,0,0.17082151770591736,-2.0363513542065448E-8,0,-0.447523832321167,5.0869321199797923E-8,0.42672273516654968,1]},{"mesh":1,"matrix":[0.99999994039535522,0,0,0,0,-1.1920928244535389E-7,-0.99999982118606567,0,0,0.99999982118606567,-1.1920928244535389E-7,0,-0.35589262843132019,-2.610039739892045E-9,-0.021894598379731178,1]},{"mesh":2,"matrix":[0.99999994039535522,0,0,0,0,-1.1920957376787555E-7,-1.0000022649765015,0,0,0.99999982118606567,-1.1920928244535389E-7,0,-0.31589257717132568,0.0068325377069413662,0.16133823990821838,1]},{"mesh":3,"matrix":[0.99999994039535522,0,0,0,0,-1.1920928244535389E-7,-0.99999982118606567,0,0,0.99999982118606567,-1.1920928244535389E-7,0,-0.029823042452335358,-4.9942259217061746E-9,-0.041894599795341492,1]},{"mesh":4,"matrix":[0.99999994039535522,0,0,0,0,-1.1920928244535389E-7,-0.99999982118606567,0,0,0.99999982118606567,-1.1920928244535389E-7,0,0.18231058120727539,0.0068325381726026535,0.14133806526660919,1]},{"mesh":5,"matrix":[0.99999994039535522,0,0,0,0,-1.1920928244535389E-7,-0.99999982118606567,0,0,0.99999982118606567,-1.1920928244535389E-7,0,0.28137683868408203,0.026831518858671188,-0.001894606277346611,1]},{"mesh":6,"matrix":[0.99999994039535522,0,0,0,0,-1.1920928244535389E-7,-0.99999982118606567,0,0,5.9616351127624512,-7.1068234319682233E-7,0,-0.15157322585582733,0.064126372337341309,-0.084892600774765015,1]},{"mesh":7,"matrix":[0.70710670948028564,9.4520196114444843E-8,-0.70710539817810059,0,-0.47482147812843323,0.741005003452301,-0.47482293844223022,0,0.52396917343139648,0.67150032520294189,0.52397018671035767,0,0.031280983239412308,0.0099999867379665375,-0.10489244014024734,1]}],"meshes":[{"primitives":[{"attributes":{"POSITION":0},"mode":4,"indices":1,"material":0}]},{"primitives":[{"attributes":{"POSITION":2},"mode":4,"indices":3,"material":1}]},{"primitives":[{"attributes":{"POSITION":4},"mode":4,"indices":5,"material":1}]},{"primitives":[{"attributes":{"POSITION":6},"mode":4,"indices":7,"material":1}]},{"primitives":[{"attributes":{"POSITION":8},"mode":4,"indices":9,"material":1}]},{"primitives":[{"attributes":{"POSITION":10},"mode":4,"indices":11,"material":1}]},{"primitives":[{"attributes":{"POSITION":12},"mode":4,"indices":13,"material":2}]},{"primitives":[{"attributes":{"POSITION":14},"mode":4,"indices":15,"material":1}]}],"materials":[{"name":"Green","pbrMetallicRoughness":{"baseColorFactor":[0.015208514407277107,0.49693304300308228,0.072271861135959625,1],"metallicFactor":0,"roughnessFactor":1},"alphaMode":"OPAQUE"},{"name":"Yellow","pbrMetallicRoughness":{"baseColorFactor":[0.99110221862792969,0.87962257862091064,0,1],"metallicFactor":0,"roughnessFactor":1},"alphaMode":"OPAQUE"},{"name":"Orange","pbrMetallicRoughness":{"baseColorFactor":[1,0.21223078668117523,0.018500218167901039,1],"metallicFactor":0,"roughnessFactor":1},"alphaMode":"OPAQUE"}],"accessors":[{"bufferView":0,"byteOffset":0,"count":8,"componentType":5126,"type":"VEC3","min":[0,0.042998004704713821,0],"max":[0.039998002350330353,0.082998007535934448,0.039998002350330353]},{"bufferView":1,"byteOffset":0,"count":36,"componentType":5125,"type":"SCALAR"},{"bufferView":2,"byteOffset":0,"count":5,"componentType":5126,"type":"VEC3","min":[0.042998004704713821,0.042998004704713821,0],"max":[0.082998007535934448,0.082998007535934448,0.039998002350330353]},{"bufferView":3,"byteOffset":0,"count":18,"componentType":5125,"type":"SCALAR"},{"bufferView":4,"byteOffset":0,"count":5,"componentType":5126,"type":"VEC3","min":[0.042998004704713821,0.042998004704713821,0],"max":[0.082998007535934448,0.082998007535934448,0.039998002350330353]},{"bufferView":5,"byteOffset":0,"count":18,"componentType":5125,"type":"SCALAR"},{"bufferView":6,"byteOffset":0,"count":5,"componentType":5126,"type":"VEC3","min":[0.042998004704713821,0.042998004704713821,0],"max":[0.082998007535934448,0.082998007535934448,0.039998002350330353]},{"bufferView":7,"byteOffset":0,"count":18,"componentType":5125,"type":"SCALAR"},{"bufferView":8,"byteOffset":0,"count":5,"componentType":5126,"type":"VEC3","min":[0.042998004704713821,0.042998004704713821,0],"max":[0.082998007535934448,0.082998007535934448,0.039998002350330353]},{"bufferView":9,"byteOffset":0,"count":18,"componentType":5125,"type":"SCALAR"},{"bufferView":10,"byteOffset":0,"count":5,"componentType":5126,"type":"VEC3","min":[0.042998004704713821,0.042998004704713821,0],"max":[0.082998007535934448,0.082998007535934448,0.039998002350330353]},{"bufferView":11,"byteOffset":0,"count":18,"componentType":5125,"type":"SCALAR"},{"bufferView":12,"byteOffset":0,"count":12,"componentType":5126,"type":"VEC3","min":[-0.028793502599000931,-0.02500000037252903,-0.010000000707805157],"max":[0.028793502599000931,0.02500000037252903,0.005488930270075798]},{"bufferView":13,"byteOffset":0,"count":60,"componentType":5125,"type":"SCALAR"},{"bufferView":14,"byteOffset":0,"count":10000,"componentType":5126,"type":"VEC3","min":[-0.035000000149011612,-0.035000000149011612,-0.010000000707805157],"max":[0.035000000149011612,0.035000000149011612,0.010000000707805157]},{"bufferView":15,"byteOffset":0,"count":60000,"componentType":5125,"type":"SCALAR"}],"bufferViews":[{"buffer":0,"byteOffset":0,"byteLength":96,"byteStride":12,"target":34962},{"buffer":0,"byteOffset":96,"byteLength":144,"target":34963},{"buffer":0,"byteOffset":240,"byteLength":60,"byteStride":12,"target":34962},{"buffer":0,"byteOffset":300,"byteLength":72,"target":34963},{"buffer":0,"byteOffset":372,"byteLength":60,"byteStride":12,"target":34962},{"buffer":0,"byteOffset":432,"byteLength":72,"target":34963},{"buffer":0,"byteOffset":504,"byteLength":60,"byteStride":12,"target":34962},{"buffer":0,"byteOffset":564,"byteLength":72,"target":34963},{"buffer":0,"byteOffset":636,"byteLength":60,"byteStride":12,"target":34962},{"buffer":0,"byteOffset":696,"byteLength":72,"target":34963},{"buffer":0,"byteOffset":768,"byteLength":60,"byteStride":12,"target":34962},{"buffer":0,"byteOffset":828,"byteLength":72,"target":34963},{"buffer":0,"byteOffset":900,"byteLength":144,"byteStride":12,"target":34962},{"buffer":0,"byteOffset":1044,"byteLength":240,"target":34963},{"buffer":0,"byteOffset":1284,"byteLength":120000,"byteStride":12,"target":34962},{"buffer":0,"byteOffset":121284,"byteLength":240000,"target":34963}],"buffers":[{"byteLength":361284,"uri":"world.bin"}]}