# Blender 3.6.2
# www.blender.org
o Object.1
v 0.000031 17.511724 100.622528
v 12.382660 12.382677 89.242722
v 0.000031 17.511724 89.242722
v 0.000031 10.822838 109.829010
v 0.000031 0.000000 113.345535
v 7.652924 7.652918 109.829010
v 7.652924 7.652893 80.036224
v 0.000031 10.822838 80.036224
v 12.382660 12.382677 100.622528
v 10.822845 0.000000 80.036224
v 17.511749 0.000000 100.622528
v 17.511749 0.000000 89.242722
v 10.822845 0.000000 109.829010
v 7.652924 -7.652918 80.036224
v 7.652924 -7.652918 109.829010
v 12.382660 -12.382677 100.622528
v 12.382660 -12.382677 89.242722
v 0.000031 -10.822838 80.036224
v 0.000031 -17.511751 100.622528
v 0.000031 -17.511751 89.242722
v 0.000031 -10.822838 109.829010
v -7.652893 -7.652918 80.036224
v -12.382660 -12.382677 100.622528
v -12.382660 -12.382677 89.242722
v -7.652893 -7.652918 109.829010
v -17.511719 0.000000 89.242722
v -10.822845 0.000000 80.036224
v -17.511719 0.000000 100.622528
v -10.822845 0.000000 109.829010
v -7.652893 7.652918 80.036224
v -12.382660 12.382677 100.622528
v -12.382660 12.382677 89.242722
v -7.652893 7.652918 109.829010
v 0.000000 -30.758282 10.884003
v -24.900116 -24.900078 16.470455
v -21.749390 -21.749386 10.884003
v 16.411163 16.411167 29.864246
v 23.390594 0.000000 27.375614
v 16.539673 16.539640 27.375614
v -24.900024 24.900127 16.470455
v 0.000031 30.758308 10.884003
v -21.749359 21.749435 10.884003
v 0.000000 -23.390581 27.375614
v -16.539612 -16.539618 27.375614
v -30.758270 0.000025 10.884003
v -26.843536 -26.843508 4.081505
v 0.000031 23.208893 29.864246
v 13.780853 13.780847 31.707485
v 0.000031 23.390581 27.375614
v 24.900085 24.900103 16.470455
v 24.900085 -24.900103 16.470455
v 16.539673 -16.539618 27.375614
v 21.749451 21.749409 10.884003
v 0.000031 37.962482 4.081505
v 19.489075 0.000000 31.707485
v 23.208893 0.000000 29.864246
v 30.758301 0.000000 10.884003
v 35.214081 0.000000 16.470455
v 21.749451 -21.749386 10.884003
v 37.962494 0.000000 4.081505
v 16.411163 -16.411142 29.864246
v 0.000031 35.214050 16.470455
v -35.214050 0.000025 16.470455
v 13.780853 -13.780821 31.707485
v 0.000000 -23.208868 29.864246
v -26.940735 26.940815 0.000000
v 26.940796 26.940763 0.000000
v 26.940796 -26.940763 0.000000
v 0.000031 22.306025 73.867111
v 15.772736 15.772739 73.867111
v -23.390564 0.000025 27.375614
v -16.539612 16.539667 27.375614
v 26.843567 -26.843531 4.081505
v 0.000000 -38.099998 0.000000
v -13.780823 -13.780821 31.707485
v -16.411163 -16.411142 29.864246
v 0.000000 -37.962482 4.081505
v -26.940765 -26.940763 0.000000
v 26.843567 26.843531 4.081505
v 38.100006 0.000000 0.000000
v -23.208862 0.000025 29.864246
v -26.843506 26.843559 4.081505
v 0.000031 38.099998 0.000000
v -38.099976 0.000025 0.000000
v -37.962494 0.000025 4.081505
v -19.489044 0.000025 31.707485
v -16.411102 16.411194 29.864246
v -13.780792 13.780847 31.707485
v -22.306000 0.000025 73.867111
v -15.772705 15.772765 73.867111
v 15.772736 -15.772739 73.867111
v 0.000031 -22.306025 73.867111
v 22.306030 0.000000 73.867111
v -15.772736 -15.772714 73.867111
v 13.210144 0.000000 70.980911
v 0.000031 -13.210108 70.980911
v 0.000031 -19.489038 31.707485
v -9.340942 -9.340952 70.980911
v -13.210114 0.000025 70.980911
v -9.340942 9.340977 70.980911
v 0.000031 13.210134 70.980911
v 0.000031 19.489038 31.707485
v 9.340973 -9.340952 70.980911
v 9.340973 9.340977 70.980911
v 0.000000 -35.214050 16.470455
vn 0.3827 0.9239 -0.0000
vn 0.1270 0.3065 0.9434
vn 0.3177 0.7671 -0.5573
vn 0.3177 0.7671 0.5573
vn 0.7671 0.3177 -0.5573
vn 0.7671 0.3177 0.5573
vn 0.9239 0.3827 -0.0000
vn 0.3065 0.1270 0.9434
vn 0.7671 -0.3177 -0.5573
vn 0.7671 -0.3177 0.5573
vn 0.9239 -0.3827 -0.0000
vn 0.3065 -0.1270 0.9434
vn 0.3177 -0.7671 -0.5573
vn 0.3177 -0.7671 0.5573
vn 0.3827 -0.9239 -0.0000
vn 0.1270 -0.3065 0.9434
vn -0.3177 -0.7671 -0.5573
vn -0.3177 -0.7671 0.5573
vn -0.3827 -0.9239 -0.0000
vn -0.1270 -0.3065 0.9434
vn -0.7671 -0.3177 -0.5573
vn -0.7671 -0.3177 0.5573
vn -0.9239 -0.3827 -0.0000
vn -0.3065 -0.1270 0.9434
vn -0.7671 0.3177 -0.5573
vn -0.7671 0.3177 0.5573
vn -0.0000 -0.0000 -1.0000
vn -0.9239 0.3827 -0.0000
vn -0.3065 0.1270 0.9434
vn -0.3177 0.7671 -0.5573
vn -0.3177 0.7671 0.5573
vn -0.3827 0.9239 -0.0000
vn -0.1270 0.3065 0.9434
vn -0.3081 -0.7438 -0.5932
vn 0.9218 0.3818 0.0673
vn -0.3081 0.7438 -0.5932
vn -0.2704 -0.6527 0.7077
vn -0.6604 -0.2735 0.6994
vn 0.1809 0.4367 0.8812
vn 0.3818 0.9218 0.0673
vn 0.6527 0.2704 0.7077
vn 0.2704 -0.6527 0.7077
vn 0.2735 0.6604 0.6994
vn 0.4367 0.1809 0.8812
vn 0.7438 0.3081 -0.5932
vn 0.7438 -0.3081 -0.5932
vn 0.3081 -0.7438 -0.5932
vn 0.6604 -0.2735 0.6994
vn 0.4367 -0.1809 0.8812
vn 0.9218 -0.3818 0.0673
vn 0.3081 0.7438 -0.5932
vn -0.7438 0.3081 -0.5932
vn 0.3818 -0.9218 0.0673
vn 0.1809 -0.4367 0.8812
vn 0.1924 0.4644 0.8645
vn -0.7438 -0.3081 -0.5932
vn -0.6527 0.2704 0.7077
vn -0.3818 -0.9218 0.0673
vn 0.3825 -0.9234 0.0311
vn -0.1809 -0.4367 0.8812
vn -0.3825 -0.9234 0.0311
vn 0.9234 0.3825 0.0311
vn 0.9234 -0.3825 0.0311
vn 0.2704 0.6527 0.7077
vn -0.9218 -0.3818 0.0673
vn -0.4367 -0.1809 0.8813
vn -0.3825 0.9234 0.0311
vn -0.9234 -0.3825 0.0311
vn 0.3825 0.9234 0.0311
vn -0.9234 0.3825 0.0311
vn 0.6527 -0.2704 0.7077
vn -0.9218 0.3818 0.0673
vn -0.4367 0.1809 0.8812
vn -0.2735 0.6604 0.6994
vn 0.6604 0.2735 0.6994
vn -0.2704 0.6527 0.7077
vn -0.3818 0.9218 0.0673
vn -0.2735 -0.6604 0.6994
vn -0.1809 0.4367 0.8813
vn -0.6604 0.2735 0.6994
vn -0.6527 -0.2704 0.7077
vn 0.2735 -0.6604 0.6994
vn -0.4644 0.1924 0.8645
vn 0.1924 -0.4644 0.8645
vn 0.4644 -0.1924 0.8645
vn -0.1924 -0.4644 0.8645
vn -0.1924 0.4644 0.8645
vn -0.4644 -0.1924 0.8645
vn 0.4644 0.1924 0.8645
vn 0.3001 0.1243 -0.9458
vn 0.3786 -0.9140 0.1461
vn -0.3001 -0.1243 -0.9458
vn -0.1243 0.3001 -0.9458
vn -0.9140 0.3786 0.1461
vn -0.9140 -0.3786 0.1461
vn -0.1243 -0.3001 -0.9458
vn 0.9140 0.3786 0.1461
vn -0.3786 0.9140 0.1461
vn 0.3001 -0.1243 -0.9458
vn 0.9140 -0.3786 0.1461
vn 0.3786 0.9140 0.1461
vn 0.1243 -0.3001 -0.9458
vn -0.3786 -0.9140 0.1461
vn -0.3001 0.1243 -0.9458
vn 0.1243 0.3001 -0.9458
vn 0.1809 0.4367 0.8813
vn -0.4367 -0.1809 0.8812
vt 0.899372 0.651689
vt 0.975878 0.645562
vt 0.948043 0.688029
vt 0.858538 0.262726
vt 0.803698 0.262979
vt 0.834148 0.228178
vt 0.823684 0.906569
vt 0.856731 0.848583
vt 0.856730 0.892880
vt 0.850185 0.632047
vt 0.927207 0.609222
vt 0.823684 0.834895
vt 0.888053 0.817261
vt 0.844356 0.376471
vt 0.861990 0.435606
vt 0.811309 0.427284
vt 0.861990 0.495635
vt 0.811309 0.487313
vt 0.790912 0.218541
vt 0.919975 0.538773
vt 0.875678 0.538773
vt 0.919975 0.381615
vt 0.933664 0.435606
vt 0.933664 0.495635
vt 0.754158 0.239460
vt 0.946038 0.784214
vt 0.963672 0.848583
vt 0.932350 0.817261
vt 0.984345 0.427284
vt 0.651165 1.000000
vt 0.636896 0.924587
vt 0.684786 0.961950
vt 0.745415 0.278680
vt 0.757603 0.945216
vt 0.730355 0.980141
vt 0.604977 0.882323
vt 0.680985 0.868077
vt 0.728875 0.905440
vt 0.769806 0.313228
vt 0.963673 0.892880
vt 0.946038 0.957250
vt 0.932350 0.924203
vt 0.815372 0.375326
vt 0.745415 0.359733
vt 0.757603 0.863573
vt 0.813042 0.322866
vt 0.888053 0.924203
vt 0.874842 0.341479
vt 0.823684 0.747874
vt 0.905162 0.745460
vt 0.872355 0.784214
vt 0.849796 0.301947
vt 0.951106 0.762681
vt 0.977608 0.727186
vt 0.856491 0.709120
vt 0.189929 0.535728
vt 0.161459 0.400719
vt 0.189929 0.409838
vt 0.603275 0.439628
vt 0.583559 0.507921
vt 0.590056 0.439628
vt 0.666181 0.116172
vt 0.637710 0.251181
vt 0.637710 0.125290
vt 0.200924 0.550378
vt 0.315686 0.460788
vt 0.282012 0.545757
vt 0.094021 0.302386
vt -0.000000 0.187480
vt 0.049741 0.184540
vt 0.750377 0.605801
vt 0.798786 0.531020
vt 0.811309 0.538632
vt 0.741303 0.235731
vt 0.732109 0.303798
vt 0.727965 0.236103
vt 0.524735 0.385521
vt 0.374008 0.376471
vt 0.396981 0.430241
vt 0.643161 0.340199
vt 0.599222 0.265924
vt 0.798786 0.451253
vt 0.811309 0.443641
vt 0.072004 0.533876
vt 0.144008 0.417568
vt 0.095832 0.533876
vt 0.514954 0.488336
vt 0.498322 0.624788
vt 0.489779 0.499188
vt 0.874842 0.360790
vt 0.918296 0.231083
vt 0.898036 0.355333
vt 0.447146 0.487310
vt 0.750377 0.376471
vt 0.596829 0.507391
vt 0.590056 0.603436
vt 0.127159 0.667032
vt 0.144008 0.650183
vt 0.072004 0.533876
vt 0.000000 0.650183
vt 0.048176 0.533876
vt 0.144008 0.630947
vt 0.161459 0.564149
vt 0.157314 0.631845
vt 0.747620 0.394849
vt 0.664207 0.376471
vt 0.577395 0.266206
vt 0.311190 0.376471
vt 0.200924 0.110266
vt 0.141380 0.887441
vt 0.162359 0.799385
vt 0.199941 0.822885
vt 0.016849 0.400719
vt 0.000000 0.417568
vt 0.374008 0.748178
vt 0.315686 0.635375
vt 0.396981 0.677144
vt 0.148121 0.563778
vt 0.161459 0.468414
vt 0.425535 0.377151
vt 0.396982 0.486737
vt 0.403733 0.376471
vt 0.624095 0.451253
vt 0.603275 0.443641
vt 0.418809 0.487019
vt 0.396982 0.642677
vt 0.457690 0.376471
vt 0.425535 0.488498
vt 0.436118 0.377258
vt 0.436118 0.644078
vt 0.672420 0.362213
vt 0.148121 0.468786
vt 0.157314 0.400719
vt 0.603275 0.538632
vt 0.599222 0.110547
vt 0.577395 0.266205
vt 0.577395 0.110266
vt 0.418809 0.642395
vt 0.403733 0.752943
vt 0.584146 0.376471
vt 0.605949 0.000679
vt 0.584146 0.000000
vt 0.745415 0.073571
vt 0.727965 0.140368
vt 0.732109 0.072673
vt 0.624094 0.531020
vt 0.664207 0.605801
vt 0.498322 0.409382
vt 0.666181 0.260299
vt 0.741303 0.140740
vt 0.094021 0.072806
vt 0.675260 0.587423
vt 0.186593 0.400719
vt 0.200924 0.357312
vt 0.251619 0.685296
vt 0.054652 0.049577
vt 0.200924 0.032638
vt 0.000000 0.822885
vt 0.093762 0.830708
vt 0.058561 0.887441
vt 0.141380 0.667032
vt 0.093762 0.723766
vt 0.058562 0.667032
vt 0.852179 0.580632
vt 0.943475 0.580632
vt 0.065348 0.755088
vt 0.000000 0.731589
vt 0.133946 0.830708
vt 0.065348 0.799385
vt 0.162359 0.755088
vt 0.199941 0.731589
vt 0.686445 0.650740
vt 0.603275 0.670358
vt 0.667831 0.605801
vt 0.881586 0.218541
vt 0.906968 0.000000
vt 0.937989 0.209279
vt 0.778745 0.743039
vt 0.759127 0.826210
vt 0.740513 0.781271
vt 0.686445 0.781271
vt 0.603275 0.761654
vt 0.648214 0.743040
vt 0.231945 0.748179
vt 0.257328 0.962044
vt 0.200924 0.958591
vt 0.497794 0.645449
vt 0.561750 0.855209
vt 0.505277 0.857232
vt 0.823684 0.670357
vt 0.823684 0.761654
vt 0.745415 0.209279
vt 0.814668 0.006278
vt 0.801819 0.218541
vt 0.270177 0.750519
vt 0.337094 0.962044
vt 0.740513 0.650740
vt 0.759127 0.605801
vt 0.324245 0.750519
vt 0.393498 0.958591
vt 0.778745 0.688972
vt 0.425535 0.855209
vt 0.667831 0.826210
vt 0.648214 0.688972
vt 0.867388 0.605801
vt 0.874365 0.784214
vt 0.875678 0.381615
vt 0.996719 0.834895
vt 0.951298 0.376471
vt 0.603275 0.962637
vt 0.632225 0.847398
vt 0.996719 0.906569
vt 0.709713 0.826210
vt 0.874364 0.957250
vt 0.823684 0.667542
vt 0.161459 0.544847
vt 0.251619 0.422459
vt 0.054652 0.332928
vt 0.747620 0.587423
vt 0.745415 0.302901
vt 0.605949 0.375792
vt 0.127159 0.400719
vt 0.524735 0.632131
vt 0.898036 0.218541
vt 0.457690 0.642329
vt 0.603275 0.602164
vt 0.016849 0.667032
vt 0.675260 0.394849
vt 0.311190 -0.000000
vt 0.467129 -0.000000
vt 0.577395 0.110266
vt 0.467129 0.376471
vt 0.200924 0.266205
vt 0.144008 0.401617
vt 0.425535 0.752263
vt 0.186593 -0.000000
vt 0.133946 0.723766
vt 0.868736 0.006278
vt 0.536073 0.644078
vt 0.776437 0.000000
vt 0.362476 0.748179
vt 0.443743 0.644078
s 0
f 1/1/1 2/2/1 3/3/1
f 4/4/2 5/5/2 6/6/2
f 3/7/3 7/8/3 8/9/3
f 4/10/4 9/11/4 1/1/4
f 2/12/5 10/13/5 7/8/5
f 6/14/6 11/15/6 9/16/6
f 9/16/7 12/17/7 2/18/7
f 6/6/8 5/5/8 13/19/8
f 12/17/9 14/20/9 10/21/9
f 11/15/10 15/22/10 16/23/10
f 11/15/11 17/24/11 12/17/11
f 13/19/12 5/5/12 15/25/12
f 17/26/13 18/27/13 14/28/13
f 15/22/14 19/29/14 16/23/14
f 17/30/15 19/31/15 20/32/15
f 15/25/16 5/5/16 21/33/16
f 20/32/17 22/34/17 18/35/17
f 21/36/18 23/37/18 19/31/18
f 19/31/19 24/38/19 20/32/19
f 21/33/20 5/5/20 25/39/20
f 22/40/21 26/41/21 27/42/21
f 25/39/22 28/43/22 23/44/22
f 23/37/23 26/45/23 24/38/23
f 25/39/24 5/5/24 29/46/24
f 26/41/25 30/47/25 27/42/25
f 29/46/26 31/48/26 28/43/26
f 22/40/27 30/47/27 7/8/27
f 28/49/28 32/50/28 26/51/28
f 29/46/29 5/5/29 33/52/29
f 30/53/30 3/3/30 8/54/30
f 31/55/31 4/10/31 1/1/31
f 31/55/32 3/3/32 32/50/32
f 33/52/33 5/5/33 4/4/33
f 34/56/34 35/57/34 36/58/34
f 37/59/35 38/60/35 39/61/35
f 40/62/36 41/63/36 42/64/36
f 35/65/37 43/66/37 44/67/37
f 45/68/38 46/69/38 36/70/38
f 47/71/39 48/72/39 37/73/39
f 47/74/40 39/75/40 49/76/40
f 38/60/41 50/77/41 39/61/41
f 43/66/42 51/78/42 52/79/42
f 53/80/43 54/81/43 41/63/43
f 37/73/44 55/82/44 56/83/44
f 50/84/45 57/85/45 53/86/45
f 58/87/46 59/88/46 57/89/46
f 51/90/47 34/91/47 59/92/47
f 59/88/48 60/93/48 57/89/48
f 55/82/49 61/94/49 56/83/49
f 56/95/50 52/96/50 38/60/50
f 62/97/51 53/86/51 41/98/51
f 63/99/52 42/100/52 45/101/52
f 61/102/53 43/103/53 52/104/53
f 64/105/54 65/106/54 61/94/54
f 66/107/27 67/108/27 68/109/27
f 69/110/55 7/111/55 70/112/55
f 35/113/56 45/101/56 36/114/56
f 40/115/57 71/116/57 72/117/57
f 65/118/58 44/119/58 43/103/58
f 73/120/59 74/121/59 68/122/59
f 65/106/60 75/123/60 76/124/60
f 77/125/61 78/126/61 74/121/61
f 79/127/62 80/128/62 67/129/62
f 60/93/63 68/130/63 80/128/63
f 50/131/64 49/76/64 39/75/64
f 76/132/65 71/133/65 44/119/65
f 75/123/66 81/134/66 76/124/66
f 82/135/67 83/136/67 66/137/67
f 46/138/68 84/139/68 78/126/68
f 54/81/69 67/140/69 83/136/69
f 85/141/70 66/137/70 84/142/70
f 52/96/71 58/87/71 38/60/71
f 81/143/72 72/144/72 71/145/72
f 86/146/73 87/147/73 81/134/73
f 54/81/74 42/64/74 41/63/74
f 57/89/75 79/127/75 53/148/75
f 62/149/76 72/144/76 49/76/76
f 87/150/77 49/76/77 72/144/77
f 46/69/78 34/151/78 36/70/78
f 88/152/79 47/71/79 87/147/79
f 82/153/80 45/68/80 42/154/80
f 63/155/81 44/67/81 71/116/81
f 77/156/82 59/157/82 34/151/82
f 89/158/83 30/159/83 90/160/83
f 91/161/84 18/162/84 92/163/84
f 93/164/85 14/20/85 91/165/85
f 92/163/86 22/166/86 94/167/86
f 90/160/87 8/168/87 69/110/87
f 94/167/88 27/169/88 89/158/88
f 70/112/89 10/170/89 93/171/89
f 95/172/90 70/173/90 93/174/90
f 64/175/91 96/176/91 97/177/91
f 98/178/92 89/179/92 99/180/92
f 100/181/93 69/182/93 101/183/93
f 99/184/94 88/185/94 86/186/94
f 98/187/95 86/188/95 75/189/95
f 98/178/96 92/190/96 94/191/96
f 48/192/97 95/193/97 55/194/97
f 100/195/98 102/196/98 88/185/98
f 103/197/99 93/174/99 91/198/99
f 95/193/100 64/175/100 55/194/100
f 101/199/101 48/200/101 102/196/101
f 103/197/102 92/190/102 96/201/102
f 97/202/103 98/187/103 75/189/103
f 99/180/104 90/203/104 100/181/104
f 101/183/105 70/173/105 104/204/105
f 1/1/1 9/11/1 2/2/1
f 3/7/3 2/12/3 7/8/3
f 4/10/4 6/205/4 9/11/4
f 2/12/5 12/206/5 10/13/5
f 6/14/6 13/207/6 11/15/6
f 9/16/7 11/15/7 12/17/7
f 12/17/9 17/24/9 14/20/9
f 11/15/10 13/207/10 15/22/10
f 11/15/11 16/23/11 17/24/11
f 17/26/13 20/208/13 18/27/13
f 15/22/14 21/209/14 19/29/14
f 17/30/15 16/210/15 19/31/15
f 20/32/17 24/38/17 22/34/17
f 21/36/18 25/211/18 23/37/18
f 19/31/19 23/37/19 24/38/19
f 22/40/21 24/212/21 26/41/21
f 25/39/22 29/46/22 28/43/22
f 23/37/23 28/213/23 26/45/23
f 26/41/25 32/214/25 30/47/25
f 29/46/26 33/52/26 31/48/26
f 7/8/27 10/13/27 14/28/27
f 14/28/27 18/27/27 22/40/27
f 22/40/27 27/42/27 30/47/27
f 30/47/27 8/9/27 7/8/27
f 7/8/27 14/28/27 22/40/27
f 28/49/28 31/55/28 32/50/28
f 30/53/30 32/50/30 3/3/30
f 31/55/31 33/215/31 4/10/31
f 31/55/32 1/1/32 3/3/32
f 34/56/34 105/216/34 35/57/34
f 37/59/35 56/95/35 38/60/35
f 40/62/36 62/149/36 41/63/36
f 35/65/37 105/217/37 43/66/37
f 45/68/38 85/218/38 46/69/38
f 47/71/106 102/219/106 48/72/106
f 47/74/40 37/220/40 39/75/40
f 38/60/41 58/87/41 50/77/41
f 43/66/42 105/217/42 51/78/42
f 53/80/43 79/221/43 54/81/43
f 37/73/44 48/72/44 55/82/44
f 50/84/45 58/222/45 57/85/45
f 58/87/46 51/223/46 59/88/46
f 51/90/47 105/224/47 34/91/47
f 59/88/48 73/225/48 60/93/48
f 55/82/49 64/105/49 61/94/49
f 56/95/50 61/226/50 52/96/50
f 62/97/51 50/84/51 53/86/51
f 63/99/52 40/227/52 42/100/52
f 61/102/53 65/118/53 43/103/53
f 64/105/54 97/228/54 65/106/54
f 68/109/27 74/229/27 78/230/27
f 78/230/27 84/231/27 66/107/27
f 66/107/27 83/232/27 67/108/27
f 67/108/27 80/233/27 68/109/27
f 68/109/27 78/230/27 66/107/27
f 69/110/55 8/168/55 7/111/55
f 35/113/56 63/99/56 45/101/56
f 40/115/57 63/155/57 71/116/57
f 65/118/58 76/132/58 44/119/58
f 73/120/59 77/125/59 74/121/59
f 65/106/60 97/228/60 75/123/60
f 77/125/61 46/138/61 78/126/61
f 79/127/62 60/93/62 80/128/62
f 60/93/63 73/225/63 68/130/63
f 50/131/64 62/149/64 49/76/64
f 76/132/65 81/234/65 71/133/65
f 75/123/107 86/146/107 81/134/107
f 82/135/67 54/81/67 83/136/67
f 46/138/68 85/235/68 84/139/68
f 54/81/69 79/221/69 67/140/69
f 85/141/70 82/135/70 66/137/70
f 52/96/71 51/223/71 58/87/71
f 81/143/72 87/150/72 72/144/72
f 86/146/73 88/152/73 87/147/73
f 54/81/74 82/135/74 42/64/74
f 57/89/75 60/93/75 79/127/75
f 62/149/76 40/62/76 72/144/76
f 87/150/77 47/74/77 49/76/77
f 46/69/78 77/156/78 34/151/78
f 88/152/79 102/219/79 47/71/79
f 82/153/80 85/218/80 45/68/80
f 63/155/81 35/65/81 44/67/81
f 77/156/82 73/236/82 59/157/82
f 89/158/83 27/169/83 30/159/83
f 91/161/84 14/237/84 18/162/84
f 93/164/85 10/21/85 14/20/85
f 92/163/86 18/162/86 22/166/86
f 90/160/87 30/159/87 8/168/87
f 94/167/88 22/166/88 27/169/88
f 70/112/89 7/111/89 10/170/89
f 95/172/90 104/204/90 70/173/90
f 64/175/91 103/238/91 96/176/91
f 98/178/92 94/191/92 89/179/92
f 100/181/93 90/203/93 69/182/93
f 99/184/94 100/195/94 88/185/94
f 98/187/95 99/239/95 86/188/95
f 98/178/96 96/201/96 92/190/96
f 48/192/97 104/240/97 95/193/97
f 100/195/98 101/199/98 102/196/98
f 103/197/99 95/172/99 93/174/99
f 95/193/100 103/238/100 64/175/100
f 101/199/101 104/241/101 48/200/101
f 103/197/102 91/198/102 92/190/102
f 97/202/103 96/242/103 98/187/103
f 99/180/104 89/179/104 90/203/104
f 101/183/105 69/182/105 70/173/105
